PathFileType	4	(X/Y/Z)	Walk7.trc
DataRate	CameraRate	NumFrames	NumMarkers	Units	OrigDataRate	OrigDataStartFrame	OrigNumFrames
200.000000	200.000000	4	61	mm	200.000000	301	437
Frame#	Times		LFHD		RFHD		CLAV		STRN		LASI		RASI		RACR1		RUA1		RFA1		RWRU		RCAR		LACR1		LUA1		LFA1		LWRU		LCAR		RTH3		RTB4		LTH1		LTH3		LTH2		LTH4		LLFC		LTB1		LTB3		LTB2		LTB4		RTB1		RTB3		RMT5		RMFC		LBHD		RWRR		RTH2		RToe		RMT1		LElbow		RLFC		LWRR		RTB2		RMMAL		RTH4		RElbow		LMFC		LToe		LPSI		T10		RBack		RLMAL		RBHD		RTH1		RCAL		RPSI		C7		LElbowM		LMMAL		RElbowM		LLMAL		LCAL		LMT5		LMT1
			X1	Y1	Z1	X2	Y2	Z2	X3	Y3	Z3	X4	Y4	Z4	X5	Y5	Z5	X6	Y6	Z6	X7	Y7	Z7	X8	Y8	Z8	X9	Y9	Z9	X10	Y10	Z10	X11	Y11	Z11	X12	Y12	Z12	X13	Y13	Z13	X14	Y14	Z14	X15	Y15	Z15	X16	Y16	Z16	X17	Y17	Z17	X18	Y18	Z18	X19	Y19	Z19	X20	Y20	Z20	X21	Y21	Z21	X22	Y22	Z22	X23	Y23	Z23	X24	Y24	Z24	X25	Y25	Z25	X26	Y26	Z26	X27	Y27	Z27	X28	Y28	Z28	X29	Y29	Z29	X30	Y30	Z30	X31	Y31	Z31	X32	Y32	Z32	X33	Y33	Z33	X34	Y34	Z34	X35	Y35	Z35	X36	Y36	Z36	X37	Y37	Z37	X38	Y38	Z38	X39	Y39	Z39	X40	Y40	Z40	X41	Y41	Z41	X42	Y42	Z42	X43	Y43	Z43	X44	Y44	Z44	X45	Y45	Z45	X46	Y46	Z46	X47	Y47	Z47	X48	Y48	Z48	X49	Y49	Z49	X50	Y50	Z50	X51	Y51	Z51	X52	Y52	Z52	X53	Y53	Z53	X54	Y54	Z54	X55	Y55	Z55	X56	Y56	Z56	X57	Y57	Z57	X58	Y58	Z58	X59	Y59	Z59	X60	Y60	Z60	X61	Y61	Z61

301	1.505	559.15	1595	-56.775	556.73	1596.9	42.779	519.02	1318.2	-8.6298	537.3	1182.7	-7.1188	475.96	906.89	-103.89	504.23	929.31	141.63	468.16	1354.2	163.5	460.08	1187	223.89	504.15	903.65	289.56	571.2	799.76	258.32	566.51	728.06	301.8	431	1366	-155.1	394.64	1192.3	-207.9	381.26	899.98	-244.66	444.25	792.11	-238.37	415.59	725.12	-266.06	451.23	591.52	184.53	448.4	249.26	104.14	448.43	738.59	-157.76	491.76	574.55	-131.03	524.73	674.56	-130.03	469.31	655.8	-145.24	510.02	443.95	-114.21	482.28	343.04	-49.136	349.76	235.79	-37.722	400.42	302.03	-102.36	413.09	290.71	-43.987	465.68	334.23	114.59	428.77	166.31	90.609	459.23	23.799	115.25	420.18	439.34	26.34	417.74	1527.9	-81.215	513.49	782.58	291.58	507.18	680.93	183.57	547.94	26.25	59.547	493.05	33.298	27.678	357.45	1037.6	-219.26	455.67	443.4	150.36	376.84	783.21	-225.61	404.52	253.65	146.94	371.7	87.267	22.578	452.48	672.27	204.87	447.23	1023.2	266.81	505.65	437.38	24.167	352.86	43.738	-41.814	311.37	968.21	-15.473	329.02	1214.8	17.769	337.24	1301.6	84.893	358.77	64.754	102.73	416.89	1537.1	63.373	454.37	757.66	228.13	305.6	42.575	58.71	325.11	972.26	83.939	411.21	1422.9	0.27844	354.09	1021.4	-145.94	255.88	198.52	0.078197	410.99	1014.6	196.76	232.6	195.01	-80.274	172.89	209.46	-35.926	281.84	91.143	-87.558	311.95	77.247	-13.509
302	1.51	567.25	1595.5	-56.76	564.76	1597.3	42.796	526.56	1318.9	-8.7446	544.9	1183.5	-7.3051	483.54	907.91	-103.96	511.61	929.4	141.47	476	1355.2	163.39	468.83	1187.9	223.79	514.97	904.84	288.94	582.85	801.56	257.19	578.91	729.76	300.59	438.08	1366.5	-155.14	400.62	1192.9	-207.49	383.11	900.6	-243.14	443.82	791.28	-236.88	413.53	724.61	-263.92	455.81	591.63	184.13	449.08	249.46	103.98	457.12	739.82	-158.14	502.72	576.46	-131.04	534.4	676.91	-130.51	479.2	657.34	-145.45	523.05	446.1	-113.94	497.62	344.57	-48.886	367.8	234.1	-37.372	416.71	301.63	-102.04	429.74	290.54	-43.686	466.57	334.4	114.37	429.24	166.57	90.539	459.3	23.821	115.15	420.74	439.47	26.171	425.62	1528.7	-81.31	525.44	783.84	290.62	512.58	680.48	182.09	548.21	26.111	59.618	493.19	33.263	27.621	362.35	1038.4	-217.91	457.4	443.5	150.17	376.26	783.96	-223.85	405.26	254.01	146.82	372.04	87.674	22.476	458.22	672.3	204.2	456.95	1024	266.61	519	439.76	24.391	376.53	43.049	-41.985	318.92	969	-15.524	336.69	1215.3	18.146	344.97	1302.3	85.174	358.91	65.252	102.57	424.71	1537.9	63.287	461.28	757.79	227.29	305.8	43.255	58.59	332.62	972.92	83.927	418.72	1423.5	0.21661	359.25	1022.6	-144.59	274.97	194.39	0.54769	420.48	1015.4	196.6	251.6	190.37	-79.805	191.48	203.01	-35.2	303.85	88.26	-87.42	334.61	75.039	-13.48
303	1.515	575.34	1595.8	-56.773	572.78	1597.6	42.782	534.12	1319.6	-8.8413	552.5	1184.3	-7.4282	491.11	908.83	-104.04	518.95	929.44	141.32	483.83	1356.1	163.29	477.55	1188.7	223.72	525.78	905.98	288.3	594.52	803.36	256.03	591.34	731.44	299.32	445.2	1367	-155.18	406.67	1193.5	-207.06	385	901.24	-241.65	443.4	790.54	-235.4	411.5	724.24	-261.79	460.39	591.73	183.73	449.76	249.71	103.87	465.78	740.97	-158.55	513.58	578.3	-131.07	543.99	679.18	-131.01	489.01	658.8	-145.7	535.92	448.17	-113.68	512.85	346.08	-48.626	385.94	232.31	-37.041	433.02	301.1	-101.74	446.39	290.3	-43.39	467.46	334.61	114.21	429.71	166.88	90.497	459.37	23.841	115.03	421.32	439.68	26.031	433.5	1529.5	-81.427	537.41	785.07	289.63	517.96	680.01	180.56	548.47	25.981	59.687	493.32	33.227	27.573	367.27	1039.3	-216.59	459.09	443.63	150	375.74	784.78	-222.1	405.96	254.4	146.72	372.4	88.125	22.369	463.98	672.32	203.5	466.63	1024.7	266.42	532.07	442.11	24.559	400.35	42.333	-42.194	326.47	969.73	-15.615	344.36	1215.8	18.505	352.71	1302.9	85.441	359.05	65.792	102.39	432.54	1538.7	63.17	468.22	757.88	226.44	306.02	43.988	58.447	340.1	973.51	83.875	426.25	1424	0.15636	364.43	1023.8	-143.27	294.27	190.09	0.96795	429.96	1016.1	196.44	270.83	185.52	-79.405	210.36	196.31	-34.551	326.07	85.276	-87.327	357.47	72.79	-13.494
304	1.52	583.43	1596.1	-56.813	580.78	1597.9	42.739	541.68	1320.1	-8.9212	560.12	1184.9	-7.4919	498.7	909.64	-104.12	526.26	929.44	141.18	491.65	1356.9	163.19	486.24	1189.5	223.67	536.59	907.07	287.66	606.18	805.13	254.83	603.81	733.1	298.01	452.37	1367.4	-155.2	412.77	1194	-206.63	386.94	901.9	-240.16	443.01	789.87	-233.94	409.52	723.98	-259.67	464.94	591.83	183.31	450.45	249.99	103.81	474.41	742.05	-158.98	524.34	580.06	-131.13	553.49	681.35	-131.51	498.76	660.2	-145.98	548.63	450.16	-113.43	527.97	347.54	-48.364	404.18	230.42	-36.732	449.36	300.44	-101.48	463.03	290.01	-43.102	468.36	334.85	114.11	430.2	167.23	90.487	459.42	23.861	114.92	421.94	439.97	25.919	441.4	1530.1	-81.565	549.41	786.27	288.62	523.32	679.5	179.01	548.72	25.863	59.756	493.46	33.191	27.533	372.21	1040.1	-215.29	460.74	443.78	149.87	375.3	785.68	-220.36	406.64	254.84	146.64	372.8	88.62	22.255	469.71	672.33	202.77	476.26	1025.3	266.24	544.88	444.4	24.671	424.34	41.611	-42.445	334.02	970.39	-15.747	352.03	1216.3	18.843	360.45	1303.4	85.695	359.18	66.375	102.19	440.36	1539.3	63.025	475.16	757.92	225.59	306.25	44.773	58.276	347.56	974.03	83.784	433.8	1424.5	0.098344	369.64	1024.9	-141.98	313.76	185.64	1.3349	439.42	1016.7	196.28	290.32	180.49	-79.072	229.53	189.38	-33.983	348.53	82.217	-87.283	380.55	70.527	-13.551
